<?xml version="1.0" encoding="utf-8"?>
<!-- Generator: Adobe Illustrator 21.0.0, SVG Export Plug-In . SVG Version: 6.00 Build 0)  -->
<svg version="1.1" id="Laag_1" xmlns="http://www.w3.org/2000/svg" xmlns:xlink="http://www.w3.org/1999/xlink" x="0px" y="0px"
	 viewBox="0 0 40 65" style="enable-background:new 0 0 40 65;" xml:space="preserve">
<g>
	<g>
		<path d="M32.1,55.9c0.3,0,0.5,0,0.8,0.1V38.3c-0.2,0-0.4,0-0.6,0H17.6c-0.2,0-0.4,0-0.6,0V56c0.2,0,0.5-0.1,0.7-0.1H32.1z"/>
	</g>
	<g>
		<path d="M15,39.9H7.4c-0.3-1.5-1.6-2.5-3.2-2.5c-1.8,0-3.3,1.5-3.3,3.3v14.4c0,1.8,1.5,3.3,3.3,3.3c1.6,0,2.9-1.1,3.2-2.5H15V39.9
			z"/>
	</g>
	<g>
		<path d="M32.1,57.9H17.7c-1.8,0-3.3,1.5-3.3,3.3s1.5,3.3,3.3,3.3h14.4c1.8,0,3.3-1.5,3.3-3.3C35.4,59.4,34,57.9,32.1,57.9z"/>
	</g>
	<g>
		<path d="M36.9,5.4c-0.1-1.5-1.2-2.8-2.6-3.3C28,0,21.8,0,15.5,2.1c-1.4,0.5-2.5,1.8-2.6,3.3L10.7,29c-0.2,1.7,1.1,3.2,2.9,3.2h1
			c-0.1,0.4-0.2,0.7-0.2,1.1c0,1.7,1.4,3.1,3.1,3.1h14.7c1.7,0,3.1-1.4,3.1-3.1c0-0.4-0.1-0.8-0.2-1.1h1c1.7,0,3-1.5,2.9-3.2
			L36.9,5.4z M17.6,27h-0.5c-0.6,0-1-0.4-1-1s0.4-1,1-1h0.5c0.6,0,1,0.4,1,1C18.6,26.5,18.1,27,17.6,27z M18.8,18.2
			c0,0.5-0.5,0.9-1,0.9c-0.6,0-1-0.5-1-1.1l0.5-8.8c0-0.6,0.5-1,1.1-0.9c0.6,0,1,0.5,0.9,1.1L18.8,18.2z M22.3,27h-0.5
			c-0.6,0-1-0.4-1-1s0.4-1,1-1h0.5c0.6,0,1,0.4,1,1C23.3,26.5,22.9,27,22.3,27z M23.5,18.2c0,0.5-0.5,1-1,1c-0.6,0-1-0.5-1-1
			l0.2-8.8c0-0.6,0.5-1,1-1c0.6,0,1,0.5,1,1L23.5,18.2z M27.3,19.2c-0.5,0-1-0.4-1-1l-0.2-8.8c0-0.6,0.4-1,1-1s1,0.4,1,1l0.2,8.8
			C28.3,18.7,27.9,19.2,27.3,19.2z M30.8,27.2c-1.1,0-2-0.9-2-2s0.9-2,2-2s2,0.9,2,2C32.8,26.3,31.9,27.2,30.8,27.2z M32.1,19.2
			c-0.6,0-1-0.4-1.1-0.9l-0.5-8.8c0-0.6,0.4-1,0.9-1.1c0.6,0,1,0.4,1.1,0.9l0.5,8.8C33.1,18.7,32.7,19.1,32.1,19.2z"/>
	</g>
</g>
</svg>
