<?xml version="1.0" encoding="UTF-8" ?>
<!DOCTYPE svg PUBLIC "-//W3C//DTD SVG 1.1//EN" "http://www.w3.org/Graphics/SVG/1.1/DTD/svg11.dtd">
<svg width="751pt" height="630pt" viewBox="0 0 751 630" version="1.1" xmlns="http://www.w3.org/2000/svg">
<g id="#1b1c20ff">
<path fill="#1b1c20" opacity="1.00" d=" M 362.59 0.00 L 388.39 0.00 C 469.87 2.97 550.22 32.83 613.08 84.90 C 664.59 127.02 704.66 183.05 727.45 245.60 C 746.63 298.50 754.50 355.79 748.59 411.83 C 740.95 492.70 705.89 570.60 650.49 630.00 L 100.36 630.00 C 54.06 580.57 21.93 518.08 8.22 451.77 C -6.80 380.07 -0.28 304.01 26.95 235.99 C 50.26 177.25 88.93 124.80 137.76 84.75 C 200.66 32.68 281.09 2.95 362.59 0.00 M 385.29 65.35 C 382.92 66.29 381.46 68.59 380.91 70.99 C 368.52 117.22 356.14 163.46 343.70 209.68 C 340.51 216.02 353.30 221.36 355.50 214.56 C 381.45 169.48 407.51 124.46 433.48 79.40 C 436.28 75.21 432.91 69.31 428.00 69.16 C 413.91 67.12 399.48 64.06 385.29 65.35 M 342.31 66.24 C 330.50 67.67 318.70 69.47 307.15 72.32 C 303.74 73.10 301.39 76.54 301.63 79.98 C 301.60 120.00 301.64 160.01 301.61 200.03 C 300.77 208.08 314.52 208.10 316.15 201.17 C 327.59 159.15 338.72 117.02 350.03 74.95 C 351.99 70.17 347.21 65.00 342.31 66.24 M 467.27 81.31 C 465.44 82.02 464.21 83.63 463.25 85.26 C 435.98 132.65 408.60 179.98 381.35 227.38 C 378.58 231.76 381.74 238.30 387.00 238.57 C 391.27 239.12 394.03 235.36 396.74 232.73 C 437.04 192.35 477.42 152.05 517.74 111.68 C 521.12 108.78 520.42 102.68 516.34 100.77 C 503.12 93.42 489.32 87.13 475.14 81.90 C 472.66 80.98 469.82 80.11 467.27 81.31 M 241.63 96.66 C 238.23 98.28 236.66 102.43 237.88 105.95 C 246.53 138.35 255.23 170.74 263.90 203.14 C 264.66 207.37 269.83 205.69 272.71 205.05 C 272.81 167.67 272.72 130.29 272.76 92.92 C 273.25 88.47 268.38 84.56 264.17 86.24 C 256.51 89.36 248.97 92.84 241.63 96.66 M 200.60 122.48 C 194.51 127.03 188.51 131.75 182.91 136.90 C 180.76 138.52 181.60 141.32 182.87 143.20 C 196.07 165.98 209.21 188.81 222.39 211.61 C 224.45 215.03 226.49 218.80 230.25 220.60 C 231.03 215.28 229.38 210.08 228.01 205.00 C 220.79 178.20 213.66 151.37 206.43 124.58 C 206.11 121.83 202.60 120.48 200.60 122.48 M 546.38 124.52 C 543.47 126.10 541.47 128.86 539.09 131.09 C 497.03 173.04 454.97 214.98 413.08 257.08 C 407.29 262.97 415.87 273.24 422.75 268.73 C 478.55 236.59 534.28 204.31 590.06 172.13 C 594.25 170.20 595.37 164.22 592.06 160.97 C 580.76 148.27 568.21 136.69 554.85 126.18 C 552.57 124.17 549.25 123.15 546.38 124.52 M 152.44 168.29 C 147.48 173.45 143.34 179.35 139.06 185.08 C 137.58 186.85 136.31 189.69 138.48 191.49 C 153.58 206.74 168.84 221.84 183.97 237.06 C 187.29 241.84 196.11 235.70 192.98 230.97 C 181.33 210.67 169.52 190.44 157.85 170.14 C 157.02 168.11 154.32 166.63 152.44 168.29 M 609.46 190.64 C 551.71 223.24 494.53 256.97 436.97 289.95 C 427.16 294.02 434.47 312.20 444.37 308.36 C 509.80 290.78 575.27 273.33 640.70 255.71 C 645.07 254.80 647.31 249.54 645.36 245.62 C 637.98 227.55 628.80 210.19 617.87 194.01 C 616.15 191.24 612.64 189.61 609.46 190.64 M 112.38 229.38 C 111.09 232.76 106.80 237.93 111.39 240.57 C 123.60 247.75 135.95 254.70 148.19 261.84 C 152.20 264.05 156.24 266.85 161.02 266.77 C 159.66 261.81 155.48 258.49 152.10 254.90 C 141.27 244.30 130.86 233.25 119.81 222.91 C 115.49 220.62 113.88 226.54 112.38 229.38 M 93.06 282.11 C 92.50 285.50 89.47 291.15 94.19 292.75 C 108.07 296.66 122.06 300.23 135.98 304.03 C 140.30 305.12 144.86 306.65 149.29 305.24 C 145.96 300.54 140.60 298.08 135.78 295.22 C 123.70 288.33 111.76 281.18 99.61 274.41 C 94.73 272.30 93.88 278.86 93.06 282.11 M 253.37 299.97 C 255.66 299.99 257.95 300.00 260.25 300.01 C 260.92 294.33 263.12 288.31 268.32 285.29 C 276.17 280.32 288.08 283.89 291.12 292.90 C 293.59 299.89 289.64 306.97 284.98 312.00 C 274.11 324.18 262.80 335.96 251.78 348.00 C 267.77 347.99 283.76 348.01 299.76 347.99 C 299.75 345.66 299.75 343.33 299.76 341.01 C 289.03 340.98 278.30 341.02 267.57 340.99 C 275.54 332.14 284.06 323.77 291.63 314.56 C 295.97 309.37 299.34 302.89 298.79 295.94 C 298.64 284.75 288.14 275.19 276.98 275.96 C 263.95 275.29 253.31 287.35 253.37 299.97 M 647.32 280.27 C 582.15 297.80 516.95 315.23 451.77 332.71 C 447.41 333.35 444.56 338.43 446.59 342.43 C 452.24 354.24 464.92 362.28 478.01 362.37 C 538.35 362.38 598.68 362.38 659.02 362.37 C 663.11 362.77 666.89 359.21 666.72 355.10 C 666.81 331.53 663.94 307.90 658.10 285.06 C 657.14 280.25 651.48 278.49 647.32 280.27 M 86.44 328.51 C 83.57 331.45 84.48 336.21 83.97 339.98 C 83.94 342.73 83.13 347.46 86.99 347.89 C 99.68 348.15 112.39 347.93 125.08 348.00 C 130.43 348.87 132.02 339.14 126.95 337.97 C 115.46 334.76 103.91 331.72 92.38 328.64 C 90.46 328.36 88.20 327.23 86.44 328.51 M 104.27 434.31 C 95.19 436.72 97.45 451.74 106.94 451.10 C 285.64 451.17 464.34 451.10 643.04 451.13 C 650.05 451.92 654.89 442.92 650.54 437.45 C 647.57 432.89 641.63 433.92 636.99 433.86 C 463.00 433.88 289.00 433.87 115.00 433.87 C 111.43 433.96 107.78 433.50 104.27 434.31 M 220.02 477.49 C 219.98 500.99 220.01 524.50 220.00 548.00 C 222.37 548.00 224.75 547.99 227.12 548.00 C 227.10 524.50 227.20 501.00 227.07 477.50 C 224.72 477.50 222.37 477.49 220.02 477.49 M 302.40 480.35 C 293.44 498.62 284.68 516.99 275.59 535.20 C 265.60 515.88 256.79 495.86 246.10 476.96 C 242.37 500.59 239.25 524.32 235.82 547.99 C 238.13 547.99 240.45 547.99 242.76 547.98 C 244.98 531.26 247.30 514.55 249.56 497.84 C 257.90 514.48 266.19 531.15 274.42 547.85 C 274.98 547.90 276.10 547.99 276.66 548.04 C 284.88 531.31 293.03 514.55 301.34 497.86 C 303.64 514.57 305.94 531.28 308.21 547.99 C 310.55 547.99 312.90 547.99 315.25 548.00 C 311.79 524.27 308.63 500.49 304.95 476.79 C 304.00 477.90 303.06 479.04 302.40 480.35 M 388.39 480.35 C 379.44 498.62 370.68 517.00 361.59 535.20 C 351.60 515.88 342.81 495.86 332.09 476.97 C 328.37 500.60 325.25 524.32 321.82 547.99 C 324.13 547.99 326.45 547.99 328.76 547.98 C 330.98 531.26 333.30 514.55 335.56 497.84 C 343.90 514.47 352.19 531.15 360.42 547.84 C 360.98 547.89 362.10 547.99 362.66 548.04 C 370.88 531.31 379.03 514.55 387.34 497.86 C 389.64 514.57 391.94 531.28 394.21 547.99 C 396.55 547.99 398.90 547.99 401.25 548.00 C 397.79 524.27 394.63 500.49 390.95 476.79 C 390.00 477.90 389.06 479.04 388.39 480.35 M 438.53 477.47 C 427.42 500.98 416.36 524.50 405.26 548.02 C 407.99 548.00 410.73 547.99 413.47 547.89 C 416.88 540.19 420.61 532.63 424.16 525.00 C 434.31 525.03 444.46 524.92 454.60 525.06 C 458.13 532.72 461.87 540.28 465.40 547.93 C 467.98 548.00 470.57 547.98 473.17 548.01 C 462.29 524.49 451.34 501.01 440.40 477.52 C 439.93 477.51 439.00 477.48 438.53 477.47 M 532.02 477.47 C 531.97 500.98 532.01 524.49 532.00 548.00 C 543.42 548.00 554.83 548.01 566.25 547.99 C 566.24 545.66 566.24 543.33 566.25 541.01 C 557.25 540.98 548.24 541.02 539.24 540.99 C 539.17 520.01 539.41 499.01 539.13 478.04 C 537.16 476.83 534.31 477.75 532.02 477.47 M 152.00 477.51 C 152.00 501.00 152.00 524.50 152.00 548.00 C 166.53 547.12 182.23 550.64 195.75 543.79 C 220.13 529.64 215.41 485.35 186.87 479.17 C 175.43 476.61 163.62 477.76 152.00 477.51 M 479.63 477.51 C 479.61 501.01 479.62 524.50 479.63 548.00 C 492.24 547.07 508.10 551.61 517.43 540.44 C 526.67 530.40 521.09 512.58 507.73 509.58 C 517.74 504.16 519.32 488.75 510.29 481.69 C 501.48 475.17 489.79 478.21 479.63 477.51 M 573.00 477.51 C 573.00 501.00 573.00 524.50 573.00 548.00 C 586.42 548.00 599.83 548.01 613.25 547.99 C 613.24 545.66 613.24 543.33 613.25 541.01 C 602.25 540.98 591.24 541.02 580.24 540.99 C 580.24 531.84 580.28 522.69 580.23 513.54 C 591.04 513.35 601.88 513.70 612.69 513.39 C 613.90 511.54 613.00 508.78 613.33 506.60 C 602.30 506.35 591.26 506.62 580.22 506.45 C 580.28 499.13 580.23 491.81 580.26 484.49 C 591.34 484.50 602.41 484.51 613.49 484.49 C 613.49 482.16 613.49 479.83 613.49 477.51 C 600.00 477.49 586.50 477.50 573.00 477.51 Z" />
<path fill="#1b1c20" opacity="1.00" d=" M 158.91 484.49 C 169.20 484.90 180.12 483.79 189.74 488.20 C 208.18 496.89 209.47 527.66 191.35 537.36 C 181.30 542.25 169.69 540.48 158.88 541.00 C 158.89 522.16 158.84 503.33 158.91 484.49 Z" />
<path fill="#1b1c20" opacity="1.00" d=" M 486.76 484.51 C 492.63 484.71 499.01 483.70 504.41 486.57 C 510.33 489.97 510.02 499.02 505.16 503.21 C 500.19 507.72 492.93 506.68 486.76 507.03 C 486.75 499.52 486.74 492.01 486.76 484.51 Z" />
<path fill="#1b1c20" opacity="1.00" d=" M 427.47 517.99 C 431.48 509.55 435.35 501.05 439.51 492.68 C 443.45 501.12 447.43 509.54 451.36 517.99 C 443.40 518.01 435.43 518.00 427.47 517.99 Z" />
<path fill="#1b1c20" opacity="1.00" d=" M 486.76 513.98 C 494.87 514.42 504.51 512.86 510.91 519.09 C 516.90 524.61 514.99 535.35 507.77 538.87 C 501.21 541.86 493.75 540.71 486.76 541.00 C 486.75 531.99 486.74 522.99 486.76 513.98 Z" />
</g>
<g id="#ffffffff">
</g>
</svg>
