<?xml version="1.0" encoding="UTF-8" ?>
<!DOCTYPE svg PUBLIC "-//W3C//DTD SVG 1.1//EN" "http://www.w3.org/Graphics/SVG/1.1/DTD/svg11.dtd">
<svg width="751pt" height="630pt" viewBox="0 0 751 630" version="1.1" xmlns="http://www.w3.org/2000/svg">
<g id="#1b1c20ff">
<path fill="#1b1c20" opacity="1.00" d=" M 362.56 0.00 L 388.40 0.00 C 469.87 2.98 550.21 32.83 613.07 84.89 C 664.58 127.02 704.66 183.05 727.45 245.60 C 746.63 298.51 754.50 355.80 748.59 411.84 C 740.95 492.71 705.88 570.60 650.50 630.00 L 100.36 630.00 C 54.06 580.57 21.93 518.09 8.22 451.78 C -6.75 380.32 -0.32 304.53 26.68 236.68 C 49.96 177.66 88.74 124.96 137.76 84.75 C 200.65 32.68 281.08 2.96 362.56 0.00 M 385.28 65.35 C 382.91 66.29 381.46 68.60 380.91 71.00 C 368.52 117.23 356.14 163.46 343.70 209.68 C 340.51 216.03 353.31 221.36 355.50 214.56 C 381.45 169.48 407.51 124.47 433.47 79.41 C 436.29 75.22 432.92 69.31 428.00 69.16 C 413.91 67.13 399.47 64.05 385.28 65.35 M 342.30 66.24 C 330.49 67.67 318.69 69.47 307.14 72.32 C 303.74 73.10 301.39 76.54 301.63 79.98 C 301.60 120.00 301.64 160.02 301.61 200.03 C 300.77 208.08 314.52 208.10 316.15 201.17 C 327.59 159.15 338.72 117.03 350.02 74.97 C 351.99 70.18 347.21 65.00 342.30 66.24 M 467.27 81.31 C 465.18 82.11 463.93 84.07 462.85 85.91 C 435.66 133.34 408.14 180.59 381.03 228.05 C 377.33 234.89 387.16 242.31 392.66 236.68 C 434.44 195.11 476.04 153.35 517.74 111.69 C 521.12 108.78 520.42 102.68 516.34 100.77 C 503.12 93.42 489.32 87.13 475.14 81.89 C 472.65 80.98 469.82 80.11 467.27 81.31 M 241.63 96.67 C 238.23 98.28 236.66 102.43 237.88 105.95 C 246.53 138.35 255.23 170.74 263.90 203.14 C 264.65 207.38 269.83 205.69 272.71 205.05 C 272.81 167.67 272.72 130.30 272.76 92.92 C 273.25 88.46 268.37 84.55 264.16 86.24 C 256.50 89.36 248.96 92.84 241.63 96.67 M 200.59 122.49 C 194.50 127.03 188.51 131.75 182.92 136.90 C 180.76 138.51 181.60 141.31 182.87 143.20 C 196.07 165.98 209.21 188.81 222.39 211.60 C 224.44 215.03 226.49 218.79 230.25 220.60 C 231.03 215.27 229.37 210.07 228.01 205.00 C 220.79 178.20 213.66 151.38 206.43 124.59 C 206.12 121.83 202.59 120.47 200.59 122.49 M 546.38 124.52 C 543.48 126.10 541.47 128.86 539.09 131.09 C 497.04 173.03 454.97 214.98 413.08 257.08 C 407.29 262.95 415.86 273.23 422.73 268.74 C 478.54 236.60 534.28 204.31 590.06 172.13 C 594.26 170.20 595.37 164.21 592.06 160.96 C 580.75 148.26 568.20 136.69 554.85 126.18 C 552.57 124.17 549.25 123.15 546.38 124.52 M 152.44 168.30 C 147.48 173.45 143.34 179.36 139.06 185.08 C 137.57 186.86 136.31 189.69 138.48 191.49 C 153.58 206.74 168.84 221.84 183.97 237.06 C 187.29 241.84 196.12 235.70 192.98 230.96 C 181.33 210.66 169.52 190.44 157.85 170.15 C 157.02 168.12 154.32 166.63 152.44 168.30 M 609.45 190.64 C 551.71 223.25 494.53 256.97 436.97 289.95 C 427.17 294.02 434.46 312.20 444.36 308.36 C 509.80 290.79 575.27 273.33 640.70 255.71 C 645.08 254.80 647.31 249.54 645.36 245.62 C 637.98 227.54 628.80 210.19 617.87 194.01 C 616.14 191.24 612.63 189.61 609.45 190.64 M 113.02 228.03 C 111.88 231.77 106.90 236.71 110.81 240.15 C 122.72 247.35 134.93 254.06 146.94 261.12 C 151.37 263.52 155.74 266.82 161.02 266.76 C 159.73 262.04 155.84 258.81 152.60 255.40 C 141.86 244.77 131.32 233.95 120.49 223.42 C 116.96 220.17 114.07 225.06 113.02 228.03 M 96.37 274.38 C 93.57 276.46 93.82 280.59 92.68 283.64 C 92.00 286.60 89.99 291.56 94.18 292.75 C 109.39 296.98 124.66 301.00 139.92 305.03 C 142.84 305.47 146.31 306.84 148.97 305.00 C 147.10 301.86 143.84 300.00 140.82 298.14 C 127.75 290.55 114.63 283.05 101.59 275.42 C 100.03 274.61 98.12 273.29 96.37 274.38 M 262.86 284.49 C 266.53 284.50 270.21 284.50 273.88 284.51 C 273.86 305.67 273.87 326.83 273.88 348.00 C 276.25 348.00 278.62 348.00 281.00 348.00 C 281.00 324.50 281.00 301.01 281.00 277.51 C 276.34 277.50 271.68 277.50 267.02 277.51 C 265.61 279.82 264.22 282.15 262.86 284.49 M 647.32 280.27 C 582.15 297.80 516.95 315.23 451.77 332.71 C 447.41 333.35 444.56 338.43 446.59 342.43 C 452.24 354.24 464.92 362.28 478.01 362.37 C 538.35 362.38 598.68 362.38 659.02 362.37 C 663.11 362.77 666.90 359.21 666.72 355.10 C 666.81 331.52 663.94 307.91 658.10 285.07 C 657.15 280.25 651.48 278.49 647.32 280.27 M 86.43 328.52 C 83.57 331.47 84.48 336.22 83.97 339.99 C 83.94 342.73 83.13 347.46 86.99 347.89 C 99.68 348.15 112.39 347.93 125.08 348.00 C 130.43 348.86 132.03 339.14 126.94 337.97 C 115.45 334.76 103.90 331.71 92.37 328.63 C 90.45 328.36 88.19 327.22 86.43 328.52 M 104.27 434.31 C 95.19 436.72 97.45 451.75 106.94 451.10 C 285.64 451.17 464.34 451.10 643.04 451.13 C 650.05 451.93 654.89 442.92 650.54 437.44 C 647.56 432.89 641.63 433.92 637.00 433.86 C 463.00 433.88 289.00 433.87 115.00 433.87 C 111.43 433.96 107.78 433.50 104.27 434.31 M 220.02 477.49 C 219.97 500.99 220.01 524.50 220.00 548.00 C 222.37 547.99 224.75 547.99 227.12 548.00 C 227.09 524.50 227.21 500.99 227.06 477.49 C 224.71 477.49 222.37 477.49 220.02 477.49 M 275.58 535.20 C 265.61 515.87 256.79 495.87 246.10 476.96 C 242.36 500.59 239.25 524.32 235.82 548.00 C 238.13 547.98 240.45 547.99 242.77 547.98 C 244.98 531.26 247.30 514.55 249.56 497.84 C 257.12 512.85 264.56 527.92 272.02 542.98 C 273.16 545.05 273.80 547.92 276.52 548.37 C 284.76 531.52 292.98 514.66 301.34 497.87 C 303.64 514.57 305.94 531.28 308.21 547.99 C 310.55 548.00 312.90 547.99 315.24 548.00 C 311.79 524.27 308.64 500.49 304.95 476.79 C 293.89 495.48 285.74 515.94 275.58 535.20 M 361.58 535.20 C 351.61 515.87 342.79 495.86 332.10 476.96 C 328.37 500.58 325.25 524.32 321.82 548.00 C 324.13 547.98 326.45 547.99 328.77 547.98 C 330.98 531.26 333.30 514.56 335.56 497.85 C 343.91 514.48 352.19 531.15 360.42 547.84 C 360.99 547.89 362.11 547.99 362.67 548.03 C 370.89 531.31 379.03 514.54 387.34 497.87 C 389.64 514.57 391.94 531.28 394.21 547.99 C 396.55 548.00 398.89 547.99 401.24 548.00 C 397.79 524.27 394.64 500.49 390.95 476.79 C 379.88 495.48 371.74 515.94 361.58 535.20 M 438.54 477.46 C 427.42 500.97 416.36 524.50 405.26 548.02 C 407.99 547.99 410.73 547.98 413.46 547.89 C 416.88 540.19 420.61 532.64 424.16 525.00 C 434.31 525.04 444.46 524.91 454.61 525.07 C 458.12 532.73 461.87 540.27 465.39 547.93 C 467.98 547.99 470.57 547.99 473.17 548.01 C 462.29 524.49 451.34 501.01 440.40 477.52 C 439.94 477.51 439.00 477.48 438.54 477.46 M 532.03 477.47 C 531.97 500.98 532.01 524.49 532.00 548.00 C 543.42 548.00 554.83 548.01 566.25 547.99 C 566.24 545.66 566.24 543.33 566.25 541.01 C 557.25 540.98 548.24 541.02 539.24 540.99 C 539.18 520.00 539.40 499.00 539.14 478.01 C 537.10 476.88 534.34 477.72 532.03 477.47 M 152.00 477.51 C 152.00 501.01 152.00 524.50 152.00 548.00 C 166.53 547.12 182.23 550.64 195.75 543.79 C 220.13 529.63 215.41 485.35 186.87 479.17 C 175.43 476.61 163.62 477.76 152.00 477.51 M 479.63 477.51 C 479.61 501.01 479.62 524.50 479.63 548.00 C 492.24 547.07 508.09 551.61 517.43 540.45 C 526.66 530.42 521.10 512.60 507.76 509.60 C 517.73 504.12 519.32 488.75 510.29 481.69 C 501.48 475.17 489.79 478.21 479.63 477.51 M 573.00 477.51 C 573.00 501.01 573.00 524.50 573.00 548.00 C 586.42 548.00 599.83 548.01 613.25 547.99 C 613.24 545.66 613.24 543.33 613.25 541.01 C 602.25 540.98 591.24 541.02 580.24 540.99 C 580.24 531.84 580.29 522.70 580.22 513.56 C 591.03 513.32 601.86 513.73 612.67 513.38 C 613.81 511.71 613.52 508.50 612.77 506.58 C 601.92 506.33 591.06 506.65 580.22 506.44 C 580.29 499.13 580.22 491.81 580.26 484.49 C 591.34 484.50 602.42 484.51 613.49 484.49 C 613.49 482.16 613.49 479.83 613.49 477.51 C 600.00 477.49 586.50 477.50 573.00 477.51 Z" />
<path fill="#1b1c20" opacity="1.00" d=" M 158.91 484.49 C 169.20 484.90 180.12 483.79 189.74 488.20 C 208.19 496.89 209.47 527.67 191.34 537.37 C 181.29 542.25 169.69 540.48 158.88 541.00 C 158.89 522.16 158.84 503.33 158.91 484.49 Z" />
<path fill="#1b1c20" opacity="1.00" d=" M 486.76 484.51 C 492.83 484.75 499.61 483.56 505.03 486.98 C 510.59 490.85 509.71 499.81 504.60 503.70 C 499.57 507.65 492.73 506.70 486.76 507.03 C 486.74 499.52 486.74 492.01 486.76 484.51 Z" />
<path fill="#1b1c20" opacity="1.00" d=" M 427.47 517.99 C 431.50 509.57 435.30 501.04 439.53 492.72 C 443.46 501.15 447.43 509.56 451.36 517.99 C 443.40 518.01 435.43 518.00 427.47 517.99 Z" />
<path fill="#1b1c20" opacity="1.00" d=" M 486.76 513.98 C 494.87 514.42 504.51 512.86 510.91 519.09 C 516.90 524.61 514.99 535.35 507.77 538.87 C 501.21 541.86 493.75 540.71 486.76 541.00 C 486.75 531.99 486.74 522.99 486.76 513.98 Z" />
</g>
<g id="#ffffffff">
</g>
</svg>
