<svg id="Laag_1" data-name="Laag 1" xmlns="http://www.w3.org/2000/svg" viewBox="0 0 641.06 640.28"><title>icon</title><path d="M130.29.09A37.57,37.57,0,0,1,138-.36q184,0,368,0a157.93,157.93,0,0,1,44.34,8.61C599.57,26,636.65,73.65,640.5,126a43,43,0,0,0,.87,9.93c.25,122,.08,244.05.13,366.07-.09,41.88-20.53,83.18-53.86,108.61A137.5,137.5,0,0,1,504,639.85q-181,0-362,0a138.19,138.19,0,0,1-87.14-29C20.54,584.87-.21,542,.47,499,.54,392.34.32,285.68.59,179c1.47-13.92.48-28,.76-42-.64-39.43,18.13-78.26,48-103.79C71.94,14,100.67,1.86,130.29.09Zm22.18,184.63c-2.54,8.19,0,16.9.16,25.27,3.94,34.58,18.91,68.12,42.7,93.62,35.85,40.93,92.75,62.14,146.6,54.91,58.79-6.3,112.21-46.6,135.37-100.92C487,235.48,492,211.19,490.69,187c-.76-6.87-7.85-12.45-14.75-11.6-7.58-.61-13.7,6.43-14.43,13.54-.18,12.11-1.26,24.32-4.55,36-11.67,46.52-49.16,85.55-95.22,99-22.19,7.25-46.06,7.2-68.75,3-46.93-9.27-87.56-44.63-103.36-89.75-6.24-16-8.28-33.23-9-50.27.14-3.49-2.81-5.77-3.92-8.8-.11.53-.21,1.07-.31,1.61C170.32,171.66,155.28,175,152.47,184.72Zm38.29,226.05c-.51,6.38-5.88,12.76-12.56,12.94l.72,1.38c6.44,1,11.15,6.75,12,13,.72-6.48,5.36-12.35,12.1-13.09l.9-1.31C196.68,424,192,417.22,190.76,410.77Zm-27.07,9.44c-.39,24.35-.36,48.77,0,73.13,3,0,6.12.56,9.06-.25-.1-24.28,0-48.57-.05-72.86A25.67,25.67,0,0,0,163.69,420.21Zm45.65-.56c-.12,24.6-.17,49.21,0,73.81,15.08-.09,30.16,0,45.25,0,.16-3.07.14-6.13.08-9.19-11.91-.75-24.38,1.22-36-1-1.87-7.4-.44-15.13,0-22.64,9.94-.2,19.89.07,29.83-.13a44.88,44.88,0,0,0-.22-8.83c-9.94-.39-19.89.19-29.82-.3q0-10.92,0-21.84c11.32-.27,22.64,0,34-.18.18-3.15.16-6.3.17-9.44C238.21,419.28,223.75,419.83,209.34,419.65Zm-88.81.19c-9.32,22.47-17.3,45.45-26.43,68a11.1,11.1,0,0,0-.91,5.61c2.69-.24,5.74.66,8.19-.85,2.3-5.52,4.47-11.12,6.47-16.76,11.43-.3,22.9-.25,34.34,0q3.18,8.83,6.81,17.5c2.86.18,5.73.15,8.6.07-8.63-24.72-18.38-49.15-28-73.52C126.56,419.84,123.54,419.84,120.53,419.84Zm66,20.87c-.52,17.43,0,34.88-.25,52.32,2.88.92,6,.15,9,.45.54-17.52.37-35.16.08-52.71C192.42,440.66,189.48,440.66,186.54,440.71ZM315.6,466q-.06,27.27,0,54.55,4.47.2,8.95,0c.1-11.16,0-22.32.05-33.47a7.45,7.45,0,0,1,3.74,2c8.69,7.17,22.32,7.3,31.24.48,7.23-5,12-13.79,11.22-22.67,1.24-14.9-13-28.51-27.75-27.48C328.71,438.91,315.8,451.9,315.6,466Zm72-20.27c-.11-1.47-.21-2.93-.29-4.38a79.4,79.4,0,0,0-8.86-.11c0,17.37-.09,34.75.09,52.11,2.94.07,5.89.07,8.85,0,.17-9.48,0-19,.15-28.45,1.11-8.91,9-16.47,18.14-16.61.13-3,.13-6,.06-9C399,438.87,392.9,442.09,387.56,445.77Zm21.71,13.08c-5.19,15.86,6.79,34.68,23.68,35.63,8.37,1,17.28-1.79,22.8-8.3.2-4.63-6.64-6.68-9.65-3.25-10.21,7.83-25.85.82-28.73-11.18,14.17-1.5,28.54-1.12,42.71-.26,2.28-12.46-3.75-26.53-16.21-30.82C429.83,435.82,413.17,444.52,409.27,458.85Zm57.33-8.77c-.44,4.53-1.29,10.13,2.66,13.44,5.33,5.09,13.24,6.88,20.43,7.09-.48.19-1,.39-1.43.6,2.76.85,5.51,1.94,7.3,4.34a30.69,30.69,0,0,1-.19,6.84c-6,6.16-16.71,5.6-22.59-.41-2.93-2.42-6,1.07-8.07,2.9,5.56,10.14,20,11.48,30.08,8.19,9.65-2.83,14.32-15.95,7.7-23.78-7-8.61-20.47-5-27.89-12.86-1.11-7.88,9.4-10.89,15.37-8.43,2.7,1.07,4.79,3.18,7.16,4.67,2.58-.62,4.82-2.64,6.51-4.63C495,436,473.22,436.16,466.6,450.08Zm48.81-4.67c-4.31,3.78-3.39,10.32-2.57,15.35,4.72,8.86,16.28,8,24.3,11.63,5,1.35,6,8.63,2,11.61-5.85,4.23-14.51,3.38-19.85-1.32-2.9-3.42-8.5,0-9,3.43,8.33,9.39,23.79,11.39,34.32,4.75,7-3.92,7.39-13.47,4.8-20.15-5.23-8-15.67-7.18-23.56-10.58-3.52-.75-6.65-4.07-5.19-7.85,4.52-6.58,14.71-6.57,20.09-1,2.59,3.21,5.52-.56,7.95-1.9,0-.49-.07-1.48-.1-2C540.84,437.39,524.25,436.59,515.41,445.41Zm-230.57,14.3c-4.27-6.28-9.13-12.13-13.8-18.11-3.59-.78-7.37-.16-11-.23,6.3,8.67,13.26,16.93,19.5,25.61-5.61,8.23-12.38,15.82-18.12,24l-.2,2.43c3.61-.46,8.5,1.48,10.9-2.24,4.3-5.68,8.79-11.21,13-17,5.8,5.93,10,13.25,15.64,19.29,3.05-.08,6.11-.06,9.17,0l.5-1.34c-6.38-8-12.44-16.3-18.88-24.26,4.08-9.95,14.55-17.17,18.5-27.22-3-.25-6.06-.12-9.08-.09C294.94,446.39,291,454.25,284.84,459.71Z" transform="translate(-0.45 0.37)"/><path d="M111.7,465.29c5-10.78,8.1-22.69,13.51-33.13,4.89,10.88,8.15,22.42,13.24,33.21A76.55,76.55,0,0,1,111.7,465.29Z" transform="translate(-0.45 0.37)"/><path d="M339.69,448.51c4.42-1.91,9,.4,13.13,2,9.2,5.27,11.27,18.1,6.4,27-4.07,6.2-11.87,10.2-19.28,8.47-8.6-1.63-15.65-10-14.56-18.95C324.34,458.27,331.24,450.05,339.69,448.51Z" transform="translate(-0.45 0.37)"/><path d="M417.05,462.38c2.48-7.36,8.8-13.76,16.92-13.92,8.15-.81,16.56,5.63,16.75,14.07C439.51,462.68,428.24,463,417.05,462.38Z" transform="translate(-0.45 0.37)"/></svg>